<?xml version="1.0" encoding="UTF-8" standalone="no"?>
<svg width="299" xmlns="http://www.w3.org/2000/svg" height="590">
 <path id="path26" fill="#636161" d="m65.328 35.942c0.22184 8.5321 6.6551 13.352 11.16 20 5.442 8.0319 9.0737 18.293 9.2693 28 0.41788 20.735-9.7102 40.944-16.225 60-1.5209 4.449-0.067184 8.556-0.80841 13-1.7752 10.642-5.609 20.052-6.3769 31-1.8424 26.268 8.0094 52.077 7.0328 78-0.52818 14.022-13.805 23.348-10.988 39 2.131 11.84 16.741 20.931 17.178 32 13.556 16.151 3.1545 36.523 3.1532 55-0.000725 11.644 1.2935 23.353 0.55553 35-0.45106 7.12-3.7933 14.03-5.2309 21-2.1442 10.395-2.4749 21.546-4.3537 32-1.0277 5.718 1.2018 11.33 0.44338 17-1.1774 8.803-5.5911 14.853-8.102 23-2.3055 7.48-2.2524 15.591-4.4628 23-1.5716 5.268-7.1861 11.654-11.749 14.757-3.9311 2.673-10.841 5.501-10.426 11.228 0.56782 7.825 10.763 4.493 15.591 3.856 11.663-1.54 18.452-17.53 23.766-26.841 6.0836-10.66 4.2952-19.455 6.0576-31 1.0949-7.173 5.4177-13.674 6.5989-21 0.99522-6.173-0.7615-12.926 0.77122-18.961 0.86885-3.42 3.9274-5.786 5.2476-9.054 3.4244-8.476 6.3156-19.897 6.7214-28.985h1.0242c1.0224 19.797 6.1574 37.738 9.4455 57 1.8352 10.75 0.6934 22.11 0.79663 33 0.046089 4.856 1.9552 9.346-0.28452 14-2.0141 4.185-4.3743 11.327-7.3971 14.75-3.0157 3.415-9.3313 2.888-10.413 8.222-0.73374 3.619 3.7968 5.833 6.8281 6.306 6.177 0.96295 19.759 1.166 21.594-6.278 0.78352-3.179-2.116-4.602-2.0761-7.389 0.079887-5.678 7.3426-11.253 8.0514-17.611 2.3291-20.907-4.8435-42.338-6.9995-63-1.3397-12.849 2.6456-25.507 1.9347-38-0.57664-10.137-2.4172-20.324-3.215-30.389-0.22226-2.812 1.4062-9.698-1.8774-9.611l1.0242-24c14.137 2.677 26.557 4.067 40.969 3.999 3.8848-0.018005 12.582-2.909 15.642-0.306 4.7892 4.074 2.9712 13.197 6.6861 18.217 9.0387 12.216 12.699 23.531 18.96 37.09 2.9354 6.357 8.4508 13.106 9.6891 20 4.6376 25.81-7.5321 52.346-20.167 74-6.3071 10.808-7.0107 23.48-19.544 30-2.1969 7.651-20.801 10.937-17.798 18.892 2.1918 5.806 9.3685 3.42 13.701 2.133 10.828-3.217 24.713-9.12 29.733-20.025 2.0454-4.442 1.9071-9.465 3.6544-14 5.1815-13.451 11.82-26.209 18.393-39 6.8643-13.359 17.665-24.453 19.622-40 1.5916-12.649-6.8766-21.616-6.8766-34h1.0242c4.6581 9.752 12.918 16.141 16.542 27 2.9129 8.728 0.51723 17.16 0.9095 26 0.92792 20.877 5.415 50.777-7.9254 68.957-4.4697 6.09-12.715 7.032-18.744 11.043v1c12.907 16.933 43.402-1.219 41.88-20-2.6763-33.044 7.7779-66.98 4.0313-101-1.1133-10.111-9.051-11.424-12.519-19.209-8.2296-18.47-5.7806-35.303-2.8791-54.791 1.3049-8.765-0.33592-17.525 5.3341-25 2.8657 20.765 5.4273 42.181 8.501 63 2.1283 14.416 6.4556 29.366 6.8469 44 0.2356 8.813 1.8272 16.37 3.3809 25 0.56128 3.113 1.7207 8.144 5.8534 8.248 7.1439 0.181 5.6905-10.164 5.2942-14.248-1.0334-10.643 4.4144-39.998-9.3921-44-0.005096-8.125-3.4321-15.029-4.0046-23-2.0126-27.998-1.5722-65.85-24.177-86.869-12.036-11.192-28.773-20.343-43.514-27.869-6.7107-3.426-15.932-5.326-21.508-10.262-2.5134 0.491-6.8827-0.121-6.1453-3-5.2911-1.39-9.3838-7.334-13.315-10.91-16.83-15.312-22.021-36.902-32.348-56.011-3.173-5.873-11.185-6.654-13.887-13.083-2.6445-6.291-0.16081-14.346-1.354-20.996-1.5496-8.645-1.6971-17.276-2.7715-26-0.35233-2.865-2.3188-6.489-0.8501-9-5.859-14.658 2.9129-38.594 4.0047-54 0.43938-6.191-0.2243-14.008 5.5502-18.258 7.7902-5.733 32.767 4.686 35.124-8.7539 1.4687-8.3645-19.803-7.6659-23.171-16.988 5.9302-0.5332 15.178-10.596 7.0179-14.954-7.4573-3.9819-15.019 9.281-23.4 7.2647-5.7561-1.3846-7.9622-7.0769-13.321-9.1637-9.0515-3.5247-19.483-1.2519-28.677-4.2522-9.1338-2.9807-16.979-10.692-26.63-11.707-7.0359-0.7399-17.148 6.1122-11.672 13.627 5.0107 6.8765 16.833 11.483 24.986 13.184z"/>
</svg>
